<svg xmlns="http://www.w3.org/2000/svg" viewBox="0 0 1030 280">
  <defs>
    <linearGradient id="a" gradientUnits="userSpaceOnUse" x1="140" y1="250" x2="400" y2="110"><stop offset="0" stop-color="#46c896"/><stop offset="1" stop-color="#8cffbe"/></linearGradient>
    <linearGradient id="b" gradientUnits="userSpaceOnUse" x1="136" y1="0" x2="440" y2="0"><stop offset="0" stop-color="#5fc4d8"/><stop offset="1" stop-color="#9be4f2"/></linearGradient>
    <linearGradient id="c" gradientUnits="userSpaceOnUse" x1="140" y1="430" x2="390" y2="300"><stop offset="0" stop-color="#6856e2"/><stop offset="1" stop-color="#8b7bff"/></linearGradient>
    <clipPath id="k"><path d="M136 122A34 34 0 0 1 187 92.6L425 227A34 34 0 0 1 425 285L187 419.4A34 34 0 0 1 136 390Z"/></clipPath>
  </defs>
  <g transform="translate(20.0 4) scale(0.5078)">
  <g clip-path="url(#k)">
    <path fill="url(#a)" d="M96 240C214 292 288 190 480 226V60H96Z"/>
    <path fill="url(#b)" d="M96 260C214 312 288 204.7 480 238.3V283.7C288 259.3 214 386 96 334Z"/>
    <path fill="url(#c)" d="M96 354C214 406 288 274 480 296V452H96Z"/>
  </g>
  </g>
  <g transform="translate(300 205) scale(1.0)" fill="none" stroke="#f3f4f8" stroke-width="14" stroke-linejoin="miter" stroke-miterlimit="8">
    <path transform="translate(0 0)" d="M0 0L62 -142L124 0M25 -48H99"/>
    <path transform="translate(152 0)" d="M0 -100V-40A40 40 0 0 0 80 -40M80 -100V0"/>
    <path transform="translate(282 0)" d="M0 -100V0M0 -56A44 44 0 0 1 72.3 -89.7"/>
    <path transform="translate(366 0)" d="M0 -50A50 50 0 1 0 100 -50A50 50 0 1 0 0 -50Z"/>
    <path transform="translate(502 0)" d="M0 -100V0M0 -56A44 44 0 0 1 72.3 -89.7"/>
    <path transform="translate(588 0)" d="M0 -50A50 50 0 1 0 100 -50A50 50 0 1 0 0 -50ZM100 -100V0"/>
  </g>
</svg>
